<?xml version="1.0" encoding="UTF-8" standalone="no"?>
<svg width="161px" height="24px" viewBox="0 0 161 24" version="1.1" xmlns="http://www.w3.org/2000/svg" xmlns:xlink="http://www.w3.org/1999/xlink">
    <!-- Generator: Sketch 43.1 (39012) - http://www.bohemiancoding.com/sketch -->
    <title>TV_Logo_Full</title>
    <desc>Created with Sketch.</desc>
    <defs></defs>
    <g id="Page-1" stroke="none" stroke-width="1" fill="none" fill-rule="evenodd">
        <g id="TV_Logo_Full">
            <polygon id="Fill-1" fill="#221F20" points="90.5212158 1.00684915 90.5212158 1.23582422 92.4949808 1.23582422 87.4749315 17.5159513 81.529823 1.23582422 83.4866439 1.23582422 83.4866439 1.00684915 75.5187696 1.00684915 75.5187696 1.23582422 77.6148073 1.23582422 85.845545 23.7394935 92.9208745 1.23582422 94.8209095 1.23582422 94.8209095 1.00684915"></polygon>
            <path d="M127.737678,1.00671177 L135.730739,1.00671177 L135.730739,1.23614478 L133.609972,1.23614478 L133.609972,18.589249 C133.609972,21.3076409 136.409879,22.9622148 138.858997,22.9622148 C141.495416,22.9622148 143.7151,21.1272086 143.7151,18.4335459 L143.7151,1.23614478 L141.209197,1.23614478 L141.209197,1.00671177 L160.00576,1.00671177 L160.00576,9.05701707 L159.850057,9.05701707 C159.612381,6.92754897 159.203431,4.74037916 157.737533,3.07847815 C156.25469,1.39917503 154.240168,1.23614478 152.168859,1.23614478 L149.933147,1.23614478 L149.933147,11.5871915 C150.392013,11.6361922 150.858664,11.6691646 151.325315,11.6691646 C154.134381,11.6691646 154.86298,9.73615711 154.986168,7.34519949 L155.190872,7.34519949 L155.190872,16.4268085 L154.986168,16.4268085 C154.634005,14.2570408 153.675515,11.9306541 151.128397,11.9306541 C150.727232,11.9306541 150.334311,11.9558414 149.933147,11.9883558 L149.933147,23.0602161 L153.282136,23.0602161 C155.018225,23.0602161 156.746987,22.3068881 157.975209,21.0951521 C159.022999,20.0624745 159.751597,18.7202227 160.00576,17.2708106 C160.144977,16.4602388 160.210463,15.6331809 160.251679,14.8139081 L160.431653,14.8139081 L160.431653,23.2896491 L144.307229,23.2896491 L144.307229,23.0602161 L146.182077,23.0602161 L146.182077,1.23614478 L144.050319,1.23614478 L144.050319,18.4985749 C144.050319,22.069212 140.660572,23.6500558 137.482857,23.6500558 C133.887948,23.6500558 129.923932,21.9057238 129.923932,17.7947055 L129.923932,1.23614478 L127.737678,1.23614478 L127.737678,1.00671177 Z" id="Fill-5" fill="#221F20"></path>
            <path d="M105.845967,12.2340919 C105.845967,8.98310392 104.682774,0.859526595 100.285079,0.859526595 C95.8713556,0.859526595 94.7246484,8.97440286 94.7246484,12.2340919 C94.7246484,15.4937809 95.8795987,23.6169003 100.285079,23.6169003 C104.682774,23.6169003 105.845967,15.4850798 105.845967,12.2340919 M100.269051,23.9530356 C97.6239307,23.9530356 95.0932983,22.4701931 93.4556686,20.4478854 C91.588606,18.146686 90.679117,15.1741317 90.679117,12.2340919 C90.679117,9.40853958 91.514876,6.56695904 93.2427218,4.31476031 C94.9458383,2.10423504 97.5089852,0.523391201 100.358809,0.523391201 C102.979199,0.523391201 105.493804,2.02226197 107.106704,4.02029838 C108.965982,6.32149777 109.891041,9.30229516 109.891041,12.242335 C109.891041,15.0591862 109.047497,17.9007668 107.327894,20.1529655 C105.641264,22.3474625 103.094145,23.9530356 100.269051,23.9530356" id="Fill-8" fill="#221F20"></path>
            <path d="M74.6295678,23.6463922 L68.0882082,23.6463922 L70.9339103,10.7761618 C70.9906961,10.4084279 71.047024,10.0613017 71.1038098,9.73569916 C71.1601377,9.41055457 71.1889885,9.07716687 71.1889885,8.73782583 C71.1889885,8.22766938 71.0964826,7.81001887 70.9128446,7.48441633 C70.7282907,7.15927174 70.5093905,6.91106277 70.2543123,6.74116327 C69.999692,6.57126377 69.7299594,6.45082289 69.4474042,6.37984062 C69.1639331,6.3093163 68.9230513,6.27359619 68.7252168,6.27359619 C68.2155183,6.27359619 67.7337548,6.38716782 67.2813001,6.61339518 C66.8279295,6.84053845 66.4318026,7.12309368 66.0915457,7.46335062 C65.5534543,8.00144202 65.1362617,8.67371281 64.8385941,9.48107888 C64.5413845,10.287987 64.2931755,11.1306152 64.095341,12.0075897 L61.4195384,23.6463922 L54.8781788,23.6463922 L59.8478536,1.77103053 L66.4318026,1.77103053 L65.794336,4.40515967 C66.0773492,4.12214649 66.4102789,3.78875879 66.7926673,3.40682839 C67.1750557,3.02398208 67.6206411,2.67777178 68.1307976,2.36590775 C68.6400381,2.05450166 69.2275881,1.78614288 69.8934476,1.55899962 C70.5583912,1.33277226 71.3162987,1.21920063 72.1657962,1.21920063 C72.9869007,1.21920063 73.7654159,1.33964151 74.5022577,1.58052328 C75.2381836,1.82094709 75.8825194,2.18226974 76.4348072,2.66311738 C76.9866371,3.14488091 77.4184841,3.73975813 77.7303482,4.44729108 C78.0417542,5.15573993 78.1974573,5.97638656 78.1974573,6.91106277 C78.1974573,7.30764758 78.1617372,7.71155959 78.0912129,8.12142495 C78.0202306,8.53220622 77.9565755,8.93566028 77.9002477,9.33224509 L74.6295678,23.6463922 Z" id="Fill-10" fill="#ED1C24"></path>
            <path d="M41.7108304,8.43988347 C41.9659086,7.95857789 42.2983804,7.50566521 42.7091617,7.08068749 C43.119027,6.65616773 43.6076598,6.30217228 44.1746021,6.01870115 C44.7406284,5.73614592 45.4339649,5.59418138 46.2559854,5.59418138 C47.076632,5.59418138 47.8414087,5.79247378 48.5493996,6.18860064 C49.0023123,6.44367887 49.3567657,6.73401925 49.611386,7.05962179 C49.8664642,7.38522433 50.0501022,7.71815407 50.1636738,8.05795307 C50.2763296,8.39775206 50.3473118,8.7160274 50.3761627,9.01323703 C50.4036397,9.31090462 50.4187521,9.55865564 50.4187521,9.75694804 L41.0738218,9.75694804 C41.2432633,9.36082118 41.4557522,8.92210496 41.7108304,8.43988347 M36.2314571,20.9066598 C37.0809546,21.9118603 38.1850723,22.7270116 39.5447263,23.3493658 C39.7842342,23.4592738 40.0361068,23.5559013 40.2934747,23.6465754 L48.7998984,23.6465754 C48.82188,23.6387903 48.8466093,23.6337528 48.8681329,23.6259677 C50.0711679,23.1867935 51.0836956,22.6418328 51.9052582,21.9897119 C52.7263628,21.3385068 53.3981756,20.6456282 53.9229864,19.9083285 C54.4464234,19.1724027 54.8924669,18.5070011 55.2606588,17.9121239 L49.7812855,15.9585087 C49.611386,16.2415219 49.3988971,16.5680403 49.1442769,16.9353163 C48.8891986,17.3039662 48.5562689,17.6570457 48.1459456,17.9973026 C47.7351643,18.3371016 47.2254658,18.6279 46.6168501,18.8683238 C46.0077764,19.1087476 45.2791778,19.2287305 44.4292223,19.2287305 C42.871734,19.2287305 41.696176,18.6627042 40.9039223,17.5301935 C40.5641233,17.0488879 40.3580457,16.5391894 40.2879793,16.0006401 C40.2169971,15.4630066 40.1817349,14.7550157 40.1817349,13.8775833 L56.1101563,13.8775833 C56.1664841,13.3962777 56.2090735,12.9149721 56.2379243,12.4327506 C56.2658593,11.9514451 56.2800558,11.4701395 56.2800558,10.9883759 C56.2800558,9.20466019 55.9897154,7.67556471 55.4094926,6.40154745 C54.8288118,5.12707225 54.0713623,4.09393676 53.137144,3.30030919 C52.2024678,2.50805547 51.1258271,1.9273747 49.9085956,1.5591828 C48.6909062,1.19144885 47.4448239,1.00689495 46.1708067,1.00689495 C43.9900482,1.00689495 42.1206957,1.43141472 40.5641233,2.2809122 C39.0061769,3.13040969 37.7248325,4.19239604 36.7200899,5.46687124 C35.7144314,6.74134645 34.9711783,8.12160814 34.4898728,9.60811425 C34.0081092,11.0946204 33.7676854,12.47534 33.7676854,13.7493573 C33.7676854,14.9963555 33.9655199,16.249307 34.3625626,17.5086699 C34.7586895,18.7689486 35.3819596,19.9023752 36.2314571,20.9066598" id="Fill-12" fill="#ED1C24"></path>
            <path d="M19.4534925,8.43988347 C19.7085707,7.95857789 20.0410425,7.50566521 20.4518237,7.08068749 C20.8616891,6.65616773 21.3503219,6.30217228 21.9172642,6.01870115 C22.4832905,5.73614592 23.176627,5.59418138 23.9986475,5.59418138 C24.8192941,5.59418138 25.5840708,5.79247378 26.2920617,6.18860064 C26.7449744,6.44367887 27.0994278,6.73401925 27.3540481,7.05962179 C27.6091263,7.38522433 27.7927643,7.71815407 27.9063359,8.05795307 C28.0189917,8.39775206 28.0899739,8.7160274 28.1188248,9.01323703 C28.1463018,9.31090462 28.1614141,9.55865564 28.1614141,9.75694804 L18.8164838,9.75694804 C18.9859254,9.36082118 19.1984142,8.92210496 19.4534925,8.43988347 M13.9741192,20.9066598 C14.8236167,21.9118603 15.9277344,22.7270116 17.2873884,23.3493658 C17.5268963,23.4592738 17.7787688,23.5559013 18.0361368,23.6465754 L26.5425604,23.6465754 C26.564542,23.6387903 26.5892714,23.6337528 26.610795,23.6259677 C27.81383,23.1867935 28.8263577,22.6418328 29.6479203,21.9897119 C30.4690248,21.3385068 31.1408377,20.6456282 31.6651906,19.9083285 C32.1890855,19.1724027 32.6351289,18.5070011 33.0033208,17.9121239 L27.5239476,15.9585087 C27.3540481,16.2415219 27.1420172,16.5680403 26.8869389,16.9353163 C26.6318607,17.3039662 26.298931,17.6570457 25.8886077,17.9973026 C25.4778264,18.3371016 24.9681279,18.6279 24.3595122,18.8683238 C23.7504385,19.1087476 23.0213819,19.2287305 22.1718844,19.2287305 C20.614396,19.2287305 19.4388381,18.6627042 18.6465843,17.5301935 C18.3067853,17.0488879 18.1007078,16.5391894 18.0306414,16.0006401 C17.9596591,15.4630066 17.924397,14.7550157 17.924397,13.8775833 L33.8528183,13.8775833 C33.9091462,13.3962777 33.9517356,12.9149721 33.9805864,12.4327506 C34.0085214,11.9514451 34.0227178,11.4701395 34.0227178,10.9883759 C34.0227178,9.20466019 33.7323775,7.67556471 33.1521546,6.40154745 C32.5714739,5.12707225 31.8140244,4.09393676 30.8798061,3.30030919 C29.9451299,2.50805547 28.8689471,1.9273747 27.6512577,1.5591828 C26.4335683,1.19144885 25.187486,1.00689495 23.9134688,1.00689495 C21.7327102,1.00689495 19.8633578,1.43141472 18.3067853,2.2809122 C16.748839,3.13040969 15.4674945,4.19239604 14.462752,5.46687124 C13.4570935,6.74134645 12.7138404,8.12160814 12.2325348,9.60811425 C11.7507713,11.0946204 11.5103475,12.47534 11.5103475,13.7493573 C11.5103475,14.9963555 11.7081819,16.249307 12.1052247,17.5086699 C12.5013516,18.7689486 13.1246217,19.9023752 13.9741192,20.9066598" id="Fill-14" fill="#ED1C24"></path>
            <path d="M0.467109131,16.8075482 C0.409865365,17.204591 0.346210297,17.5938486 0.276143927,17.975779 C0.205161657,18.3586253 0.169899497,18.747425 0.169899497,19.1440098 C0.169899497,20.3621571 0.431389021,21.3037026 0.955741917,21.9686462 C1.47917891,22.6349636 2.12397269,23.1231384 2.88829146,23.4345445 C3.09253721,23.5183494 3.30090452,23.5852101 3.51018773,23.6465754 L9.43285674,23.6465754 C9.54505452,23.6314631 9.6572523,23.6195564 9.76945008,23.604444 L10.9161572,18.5491325 L9.64213995,18.5491325 C9.33027591,18.5491325 9.03306627,18.5285248 8.7500531,18.4854775 C8.46658197,18.4433461 8.20417654,18.3586253 7.96421068,18.2303993 C7.72332891,18.1035471 7.53236371,17.9121239 7.39085712,17.6570457 C7.24889258,17.4024254 7.17836826,17.0488879 7.17836826,16.5955173 C7.17836826,16.3692899 7.21363042,16.0794075 7.28461269,15.7244962 C7.35513701,15.3709587 7.41879207,15.0384869 7.47557789,14.7261649 L9.55696122,5.59418138 L13.3373395,5.59418138 L14.2294264,1.21892586 L0.892086849,1.21892586 L0,5.59418138 L2.97347018,5.59418138 L0.467109131,16.8075482 Z" id="Fill-16" fill="#ED1C24"></path>
            <path d="M125.960419,0.613607377 L125.960419,8.43447966 L125.779987,8.43447966 C125.444309,6.89439338 124.969415,5.39598056 124.142357,4.03678458 C123.159596,2.44815559 121.595697,0.66260804 119.556445,0.66260804 C114.872073,0.66260804 114.446179,9.05683389 114.446179,12.2588212 C114.446179,15.125589 114.675612,18.0816571 115.715617,20.7675346 C116.444673,22.6506255 117.500706,23.5766006 119.458443,23.5766006 C121.0141,23.5766006 122.668216,22.7903003 123.495274,21.4388894 C123.70822,21.0862678 123.724707,20.6938046 123.724707,20.2917244 L123.724707,20.2353965 L123.724707,14.2486145 L121.676754,14.2486145 L121.676754,14.0113963 L129.170192,14.0113963 L129.170192,14.2486145 L127.418074,14.2486145 L127.418074,23.2894659 L127.262371,23.2894659 C126.819992,22.5526242 126.123907,22.0690288 125.231363,22.0690288 C124.584737,22.0690288 123.953682,22.2984618 123.389029,22.6103259 L122.880705,22.8883016 C121.734455,23.3961683 120.637665,23.7643602 119.367769,23.7643602 C113.553634,23.7643602 110.458349,17.5650893 110.458349,12.4232253 C110.458349,8.66391268 111.891275,4.64219465 114.93756,2.2919946 C116.305457,1.2359616 117.959115,0.457904333 119.719933,0.457904333 C120.408232,0.457904333 121.087372,0.670851143 121.726212,0.924555513 L122.193321,1.10498786 C122.725459,1.30099052 123.307056,1.49012392 123.879952,1.49012392 C124.59298,1.49012392 125.231363,1.02255684 125.779987,0.613607377 L125.960419,0.613607377 Z" id="Fill-2" fill="#221F20"></path>
        </g>
    </g>
</svg>